<svg width="308" height="216" viewBox="0 0 308 216" fill="none" xmlns="http://www.w3.org/2000/svg">
<g filter="url(#filter0_d_615_135)">
<path fill-rule="evenodd" clip-rule="evenodd" d="M173.813 190.783H275.692V67.7576L254.957 46.9609H173.813V190.783Z" fill="#F20036"/>
<path fill-rule="evenodd" clip-rule="evenodd" d="M254.986 67.7437L265.312 57.3714L275.691 67.7437V88.544L254.986 67.7437Z" fill="#E10029"/>
<path fill-rule="evenodd" clip-rule="evenodd" d="M275.691 67.7615H254.985V46.9783L275.691 67.7615Z" fill="#A8000A"/>
<path fill-rule="evenodd" clip-rule="evenodd" d="M252.727 99.1437L239.826 101.553L228.994 86.7626L233.349 76.847L231.062 70.218L217.617 71.0949L215.222 75.3126L222.516 87.3658L212.881 106.594L195.244 109.881L191.706 121.605L200.688 130.918L209.724 130.809L216.909 114.318L235.471 108.95L240.153 116.674L250.169 115.798L255.993 102.978L252.727 99.1437ZM221.046 75.7514L228.014 76.3539L225.347 81.6679L221.046 75.7514ZM204.553 123.247L201.45 118.811L207.655 117.002L204.553 123.247ZM221.046 105.059L226.163 93.3916L232.042 103.033L221.046 105.059ZM243.528 106.594L248.427 105.169L245.487 109.279L243.528 106.594Z" fill="white"/>
<path fill-rule="evenodd" clip-rule="evenodd" d="M207.771 142.803H287.671V174.779H207.771V142.803Z" fill="#A8000A"/>
<path d="M223.065 167.192H218.956V163.211H223.065V167.192ZM234.114 149.777C235.186 149.777 236.143 149.923 236.985 150.212C237.828 150.502 238.542 150.913 239.129 151.444C239.716 151.974 240.166 152.61 240.482 153.347C240.796 154.085 240.953 154.902 240.953 155.798V155.848C240.953 156.859 240.766 157.747 240.392 158.509C240.017 159.272 239.503 159.912 238.848 160.426C238.193 160.939 237.428 161.324 236.552 161.582C235.675 161.84 234.735 161.967 233.732 161.967H230.746V167.192H226.815V149.777H234.114ZM250.829 149.777C252.224 149.777 253.504 149.997 254.67 150.437C255.835 150.876 256.839 151.486 257.681 152.265C258.523 153.045 259.174 153.96 259.633 155.014C260.092 156.067 260.322 157.208 260.322 158.435V158.485C260.322 159.713 260.092 160.857 259.633 161.917C259.174 162.979 258.523 163.9 257.681 164.68C256.839 165.459 255.835 166.073 254.67 166.52C253.504 166.968 252.224 167.192 250.829 167.192H243.862V149.777H250.829ZM277.42 153.235H267.748V156.992H276.272V160.451H267.748V167.192H263.818V149.777H277.42V153.235ZM247.792 163.734H250.829C251.628 163.734 252.36 163.609 253.023 163.361C253.687 163.112 254.253 162.756 254.721 162.291C255.189 161.828 255.555 161.28 255.818 160.65C256.082 160.019 256.214 159.314 256.214 158.535V158.485C256.214 157.722 256.082 157.016 255.818 156.37C255.555 155.724 255.189 155.168 254.721 154.703C254.253 154.239 253.687 153.878 253.023 153.62C252.36 153.364 251.629 153.235 250.829 153.235H247.792V163.734ZM230.746 158.559H233.859C234.846 158.559 235.612 158.306 236.156 157.8C236.7 157.294 236.973 156.669 236.973 155.922V155.872C236.973 155.01 236.687 154.354 236.117 153.907C235.547 153.459 234.769 153.235 233.782 153.235H230.746V158.559Z" fill="white"/>
<path fill-rule="evenodd" clip-rule="evenodd" d="M150.013 47.9527V64.7368H90.9203V120.869H150.013V137.842L200.785 92.9923L150.013 47.9527Z" fill="#1B0B1C"/>
<path fill-rule="evenodd" clip-rule="evenodd" d="M165 86.5244C165 85.7911 164.474 84.8915 163.831 84.525L152.669 78.1622C152.026 77.7956 150.974 77.7956 150.331 78.1622L139.169 84.525C138.526 84.8915 138 85.7913 138 86.5244V99.25C138 99.6166 138.131 100.025 138.343 100.387C138.555 100.75 138.847 101.066 139.169 101.249L150.331 107.612C150.662 107.801 151.102 107.893 151.539 107.887C151.632 107.886 151.725 107.88 151.816 107.87C152.129 107.836 152.428 107.75 152.669 107.612L163.831 101.249C164.152 101.066 164.445 100.75 164.656 100.387C164.868 100.025 165 99.6166 165 99.25V86.5244ZM151.5 101.774C146.537 101.774 142.5 97.7873 142.5 92.8873C142.5 87.9874 146.537 84.001 151.5 84.001C154.702 84.001 157.689 85.7024 159.294 88.4414L155.399 90.6668C154.596 89.2958 153.101 88.4441 151.5 88.4441C149.019 88.4441 147 90.4373 147 92.8873C147 95.3372 149.019 97.3305 151.5 97.3305C153.102 97.3305 154.596 96.4788 155.399 95.1076L159.294 97.3329C157.689 100.072 154.702 101.774 151.5 101.774ZM160.5 92.3936H159.5V91.4062H158.5V92.3936H157.5V93.3809H158.5V94.3683H159.5V93.3809H160.5V92.3936ZM164.25 92.3936H163.25V91.4062H162.25V92.3936H161.25V93.3809H162.25V94.3683H163.25V93.3809H164.25V92.3936Z" fill="white"/>
<path fill-rule="evenodd" clip-rule="evenodd" d="M20 158.822H121.879V35.7965L101.144 15H20V158.822Z" fill="#F49400"/>
<path fill-rule="evenodd" clip-rule="evenodd" d="M101.174 35.8006L111.499 25.4269L121.879 35.8006V56.6001L101.174 35.8006Z" fill="#F08400"/>
<path fill-rule="evenodd" clip-rule="evenodd" d="M121.878 35.8177H101.173V15.0353L121.878 35.8177Z" fill="#D23F00"/>
<path fill-rule="evenodd" clip-rule="evenodd" d="M36.9816 110.828H133.86V142.804H36.9816V110.828Z" fill="#D24000"/>
<path fill-rule="evenodd" clip-rule="evenodd" d="M93.1316 55.7728H71.9417H59.5578L60.3585 64.8056H71.9417H92.3311L89.9244 91.886L71.9417 96.8944L71.9266 96.8996L53.954 91.886L52.698 77.7222H61.5043L62.1598 85.0718L71.9318 87.7233L71.9417 87.7181L81.7235 85.0667L82.7445 73.6279H71.9417H52.3378L49.9662 46.9609H71.9417H93.9122L93.1316 55.7728Z" fill="#FEFEFE"/>
<path d="M50.0031 135.866H45.9835V131.758H50.0031V135.866ZM58.1281 125.003H65.2198V117.889H69.0646V135.866H65.2198V128.651H58.1281V135.866H54.2833V117.889H58.1281V125.003ZM86.4181 121.535H81.0997V135.866H77.255V121.535H71.9366V117.889H86.4181V121.535ZM98.0167 125.49L102.61 117.889H106.756V135.866H102.961V124.13L98.0411 131.809H97.9415L93.0724 124.207V135.866H89.2775V117.889H93.422L98.0167 125.49ZM115.16 132.297H123.875V135.866H111.316V117.889H115.16V132.297Z" fill="white"/>
</g>
<defs>
<filter id="filter0_d_615_135" x="0" y="0" width="307.671" height="215.783" filterUnits="userSpaceOnUse" color-interpolation-filters="sRGB">
<feFlood flood-opacity="0" result="BackgroundImageFix"/>
<feColorMatrix in="SourceAlpha" type="matrix" values="0 0 0 0 0 0 0 0 0 0 0 0 0 0 0 0 0 0 127 0" result="hardAlpha"/>
<feOffset dy="5"/>
<feGaussianBlur stdDeviation="10"/>
<feColorMatrix type="matrix" values="0 0 0 0 0 0 0 0 0 0 0 0 0 0 0 0 0 0 0.15 0"/>
<feBlend mode="normal" in2="BackgroundImageFix" result="effect1_dropShadow_615_135"/>
<feBlend mode="normal" in="SourceGraphic" in2="effect1_dropShadow_615_135" result="shape"/>
</filter>
</defs>
</svg>
